<?xml version="1.0" encoding="utf-8"?>
<!-- Generator: Adobe Illustrator 26.1.0, SVG Export Plug-In . SVG Version: 6.00 Build 0)  -->
<svg version="1.1" id="Milton" xmlns="http://www.w3.org/2000/svg" xmlns:xlink="http://www.w3.org/1999/xlink" x="0px" y="0px"
	 viewBox="0 0 595.28 841.89" style="enable-background:new 0 0 595.28 841.89;" xml:space="preserve">
<style type="text/css">
	.st0{fill:none;}
	.st1{font-family:'ArialMT';}
	.st2{font-size:12px;}
	.st3{fill:#E9D9A6;stroke:#000000;stroke-miterlimit:10;}
	.st4{fill:#046075;}
	.st5{fill:#051118;}
	.st6{font-family:'HoosierDaddy';}
	.st7{font-size:62.2545px;}
	.st8{font-family:'UppercutAngle';}
	.st9{font-size:33.5436px;}
</style>
<g>
	<path id="SVGID_x5F_00000038383479086352609990000003246642679024609454_x5F_" class="st0" d="M-108.24,386.77
		c-36,113.9-158.56,176.73-273.74,140.32s-179.37-158.25-143.37-272.16S-366.8,78.21-251.62,114.61S-72.24,272.87-108.24,386.77z"/>
	<text transform="matrix(0.9985 0.0547 -0.0547 0.9985 -307.9488 104.5116)" class="st1 st2"> </text>
	<text transform="matrix(0.9544 0.2986 -0.2986 0.9544 -303.2058 98.4679)" class="st5 st6" style="font-size:77.9712px;">M</text>
	<text transform="matrix(0.7805 0.6252 -0.6252 0.7805 -202.5348 134.7685)" class="st5 st6" style="font-size:77.9712px;">i</text>
	<text transform="matrix(0.5533 0.833 -0.833 0.5533 -156.1556 170.0359)" class="st5 st6" style="font-size:77.9712px;">l</text>
	<text transform="matrix(0.2231 0.9748 -0.9748 0.2231 -112.5084 235.6935)" class="st5 st6" style="font-size:77.9712px;">t</text>
	<text transform="matrix(-0.1335 0.991 -0.991 -0.1335 -95.216 314.0587)" class="st5 st6" style="font-size:77.9712px;">o</text>
	<text class="st1 st2"> </text>
	<circle class="st3" cx="-316.8" cy="316.52" r="182.94"/>
	<circle class="st4" cx="-316.8" cy="316.52" r="86.89"/>
	<circle class="st5" cx="-316.8" cy="320.85" r="21.54"/>
	<rect x="-294.64" y="218.84" class="st0" width="49.71" height="518.77"/>
</g>
<text class="st1 st2"> </text>
<text class="st1 st2"> </text>
<g>
	<path class="st3" d="M446.02,412.2H108.61c-38.55,0-69.8-31.25-69.8-69.8l0,0c0-38.55,31.25-69.8,69.8-69.8h337.41
		c38.55,0,69.8,31.25,69.8,69.8l0,0C515.82,380.94,484.57,412.2,446.02,412.2z"/>
	<text transform="matrix(1.0496 0 0 1 74.3247 342.3936)" class="st5 st6 st7">Milton</text>
	<text transform="matrix(1.0496 0 0 1 149.2456 388.4482)" class="st5 st8 st9">And brother</text>
</g>
</svg>
