<?xml version="1.0" encoding="UTF-8"?><svg xmlns="http://www.w3.org/2000/svg" viewBox="0 0 713.78 772.02"><defs><style>.d{font-family:HoosierDaddy, Hoosier Daddy;font-size:77.97px;}.d,.e{fill:#051118;}.f{fill:#046075;}.g{fill:#e9d9a6;stroke:#1d1d1b;stroke-miterlimit:10;}</style></defs><g id="a"/><g id="b"><g id="c"><g><text class="d" transform="translate(158.65 248.02) rotate(-47.19) scale(1.01 1)"><tspan x="0" y="0">M</tspan></text><text class="d" transform="translate(231.71 174.71) rotate(-26.49) scale(1.01 1)"><tspan x="0" y="0">i</tspan></text><text class="d" transform="translate(280.03 148.39) rotate(-9.61) scale(1.01 1)"><tspan x="0" y="0">l</tspan></text><text class="d" transform="translate(349.21 135.17) rotate(8.79) scale(1.01 1)"><tspan x="0" y="0">t</tspan></text><text class="d" transform="translate(425.1 146.77) rotate(27.61) scale(1.01 1)"><tspan x="0" y="0">o</tspan></text><text class="d" transform="translate(489.3 177.5) rotate(48.52) scale(1.01 1)"><tspan x="0" y="0">n</tspan></text><text class="d" transform="translate(546.72 248.65) rotate(63.14) scale(1.01 1)"><tspan x="0" y="0"> </tspan></text><text class="d" transform="translate(560.36 265.54) rotate(77.4) scale(1.01 1)"><tspan x="0" y="0">a</tspan></text><text class="d" transform="translate(580.58 350.34) rotate(100.9) scale(1.01 1)"><tspan x="0" y="0">n</tspan></text><text class="d" transform="translate(563.02 439.41) rotate(123.1) scale(1.01 1)"><tspan x="0" y="0">d</tspan></text><text class="d" transform="translate(517.43 503.75) rotate(136.45) scale(1.01 1)"><tspan x="0" y="0"> </tspan></text><text class="d" transform="translate(504.59 521.08) rotate(149.72) scale(1.01 1)"><tspan x="0" y="0">b</tspan></text><text class="d" transform="translate(436.9 562.38) rotate(171.26) scale(1.01 1)"><tspan x="0" y="0">r</tspan></text><text class="d" transform="translate(354.12 574.98) rotate(-169.28) scale(1.01 1)"><tspan x="0" y="0">o</tspan></text><text class="d" transform="translate(285.36 563.28) rotate(-150.8) scale(1.01 1)"><tspan x="0" y="0">t</tspan></text><text class="d" transform="translate(217.41 527.41) rotate(-129.43) scale(1.01 1)"><tspan x="0" y="0">h</tspan></text><text class="d" transform="translate(161.39 458.63) rotate(-108.09) scale(1.01 1)"><tspan x="0" y="0">e</tspan></text><text class="d" transform="translate(135.91 386.68) rotate(-86.48) scale(1.01 1)"><tspan x="0" y="0">r</tspan></text><text class="d" transform="translate(145.13 298.92) rotate(-71.52) scale(1.01 1)"><tspan x="0" y="0"> </tspan></text><text class="d" transform="translate(152.05 277.69) rotate(-66.08) scale(1.01 1)"><tspan x="0" y="0"> </tspan></text><text class="d" transform="translate(161.02 257.3) rotate(-60.11) scale(1.01 1)"><tspan x="0" y="0"> </tspan></text><text class="d" transform="translate(172.07 237.93) rotate(-54.12) scale(1.01 1)"><tspan x="0" y="0"> </tspan></text><text class="d" transform="translate(185.08 219.82) rotate(-48.13) scale(1.01 1)"><tspan x="0" y="0"> </tspan></text><circle class="g" cx="356.89" cy="350.93" r="182.94"/><circle class="f" cx="356.89" cy="350.93" r="86.89"/><circle class="e" cx="356.89" cy="355.26" r="21.54"/><text/></g></g></g></svg>